<svg xmlns="http://www.w3.org/2000/svg" viewBox="0 0 64 64" role="img" aria-labelledby="title">
  <title>Google logo</title>
  <path d="M56 32.7c0-1.7-.2-3.4-.5-5H32v9.5h13.4c-.6 3-2.3 5.6-4.9 7.3v6h7.9C53.1 46.2 56 40 56 32.7Z" fill="#4285F4"/>
  <path d="M32 57c6.8 0 12.5-2.2 16.6-6.1l-7.9-6c-2.2 1.5-5 2.4-8.7 2.4-6.7 0-12.3-4.5-14.4-10.6h-8.1v6.2C13.5 51.3 22.1 57 32 57Z" fill="#34A853"/>
  <path d="M17.6 36.7c-.5-1.5-.8-3.1-.8-4.7s.3-3.2.8-4.7v-6.2H9.5C7.9 24.2 7 28 7 32s.9 7.8 2.5 10.9l8.1-6.2Z" fill="#FBBC05"/>
  <path d="M32 16.7c3.7 0 7 .1 9.6 3.5l7.2-7.2C44.5 8.9 38.8 7 32 7 22.1 7 13.5 12.7 9.5 21.1l8.1 6.2C19.7 21.2 25.3 16.7 32 16.7Z" fill="#EA4335"/>
</svg>
